# xmcd
#
# Track frame offsets:
#	182
#	17250
#	32930
#	41935
#	56255
#	72685
#	87387
#	98080
#	109317
#	124702
#	141317
#	156657
#	171595
#	188190
#	201917
#	216545
#	227552
#	248110
#	264882
#	277025
#	289427
#	304155
#	318942
#	337640
#
# Disc length: 4712 seconds
#
# Revision: 4
# Processed by: cddbd v1.5.2PL0 Copyright (c) Steve Scherf et al.
# Submitted via: audiograbber 1.82.02
#
DISCID=74126618
DTITLE=Fritz Kreisler - Original Compositions and Arrangements (EMI 7 64701 2)
DYEAR=1993
DGENRE=Classical
TTITLE0=Caprice viennois
TTITLE1=Tambourin chinois
TTITLE2=Schon Rosmarin
TTITLE3=La Gitana
TTITLE4=Liebesleid
TTITLE5=Liebesfreud
TTITLE6=Pollchinelle
TTITLE7=Rondino on a theme by Beethoven
TTITLE8=La Precieuse
TTITLE9=Chanson Louis XIII and Pavane
TTITLE10=Scherzo alla Dittersdord
TTITLE11=Gavotte
TTITLE12=Londonderry Air
TTITLE13=Ballet No. 2-Rosamunde
TTITLE14=The Old Refrain
TTITLE15=Poupee valsante
TTITLE16=Andante cantabile
TTITLE17=Humoresque
TTITLE18=Serenade espagnole
TTITLE19=Larghetto
TTITLE20=Midnight Bells
TTITLE21=Chanson hindoue
TTITLE22=Lotus Land
TTITLE23=Danza espanola
EXTD=
EXTT0=
EXTT1=
EXTT2=
EXTT3=
EXTT4=
EXTT5=
EXTT6=
EXTT7=
EXTT8=
EXTT9=
EXTT10=
EXTT11=
EXTT12=
EXTT13=
EXTT14=
EXTT15=
EXTT16=
EXTT17=
EXTT18=
EXTT19=
EXTT20=
EXTT21=
EXTT22=
EXTT23=
PLAYORDER=
